<svg width="93" height="30" viewBox="0 0 93 30" fill="none" xmlns="http://www.w3.org/2000/svg">
    <path
        d="M21.0812 2.73326L30.5278 2.73367L30.1947 3.78428L29.8663 4.81704L29.9062 4.81672L29.5574 5.89785L28.537 9.06107L28.3634 9.59921H36.985H40.9682H53.0773H57.078L63.4136 9.60042L63.9244 9.60048L64.1547 10.0457L64.2871 10.3022L64.3289 10.1718L64.5097 9.60052L65.1221 9.60042L69.1804 9.59921H73.1886L91.1152 9.60042L92.2378 9.60047L91.9092 10.6486L90.9234 13.793L86.6561 27.4048L86.1167 29.1253L85.9369 29.6987H60.7014L60.4711 29.2535L60.3463 29.0124L60.3108 29.1262L60.1305 29.6987H0.216431L0.546531 28.6498L1.53681 25.5029L4.72313 15.373L4.35612 14.8241L3.82252 14.825L2.7003 14.8257L3.02784 13.7776L3.226 13.14L1.69468 10.8554L0.853458 9.6009L2.3891 9.60042L4.33287 9.59921L4.4624 9.18488L4.39614 9.08033L3.51106 7.68228L1.1614 3.97082L0.378173 2.73367L10.3148 2.73326H14.4499H16.9319H21.0812ZM18.5284 0.41272L17.5466 3.54448H14.0018L11.9128 0.430356L10.9278 3.54448H1.86769L4.21736 7.25594L5.10244 8.65398L5.36607 9.07097L4.9484 10.4104L2.38936 10.4112L4.13465 13.0139L3.82205 14.0142L4.80475 14.0137L4.91418 14.1762L5.63178 15.2477L2.33056 25.741L1.34026 28.8879H27.3193L27.8598 27.1698L27.9692 26.8204L28.0165 27.0126L28.4684 28.8879H59.5171L60.0579 27.1703L60.158 26.8504L60.5213 27.5521L61.2123 28.8879H85.3227L85.8621 27.1675L90.1294 13.5557L91.1152 10.4112L72.7404 10.4104L70.7339 7.41794L69.7951 10.4104L65.1222 10.4112L64.5796 12.1253L64.4725 12.4602L64.1044 11.7471L63.4135 10.4112L56.6298 10.4104L54.6329 7.43289L53.6904 10.4104H40.5201L38.5328 7.44794L37.598 10.4104H27.2302L27.2981 10.2028L27.745 8.81747L28.7654 5.65425L28.7323 5.65502L29.4015 3.54448H20.633L18.5284 0.41272Z"
        fill="#61C7D7" />
    <path
        d="M18.5283 0.41272L20.633 3.54448H29.4014L28.7323 5.65502L28.7654 5.65425L27.745 8.81747L27.2981 10.2028L27.2302 10.4104H37.598L38.5327 7.44794L40.52 10.4104H53.6903L54.6328 7.43289L56.6298 10.4104L63.4135 10.4112L64.1044 11.7471L64.4725 12.4602L64.5795 12.1253L65.1222 10.4112L69.7951 10.4104L70.7338 7.41794L72.7404 10.4104L91.1152 10.4112L90.1294 13.5557L85.862 27.1675L85.3227 28.8879H61.2122L60.5213 27.5521L60.158 26.8504L60.0578 27.1703L59.517 28.8879H28.4683L28.0164 27.0126L27.9692 26.8204L27.8598 27.1698L27.3193 28.8879H1.34021L2.33051 25.741L5.63173 15.2477L4.91413 14.1762L4.8047 14.0137L3.822 14.0142L4.1346 13.0139L2.38931 10.4112L4.94835 10.4104L5.36602 9.07097L5.10239 8.65398L4.21731 7.25594L1.86764 3.54448H10.9278L11.9127 0.430356L14.0017 3.54448H17.5465L18.5283 0.41272Z"
        fill="black" />
    <path
        d="M61.8809 12.8437H6.99824L8.35747 14.8705L4.71179 26.4555H9.39006L10.7493 22.0931H15.7542L14.395 26.4555H19.0838L23.267 13.1121L24.446 14.8705L20.8004 26.4555H25.4786L26.9643 21.733H29.3034L30.4414 26.4555H35.1513L34.066 21.733H36.6369L39.3543 13.1112L40.5346 14.8705L36.8889 26.4555H51.2609L52.2935 23.0809H42.6208L43.1688 21.3318H52.8519L53.9372 17.9674H44.2435L44.7809 16.2389H54.4535L55.4499 13.0902L56.6442 14.8705L52.9985 26.4555H57.6768L59.5945 20.3647L62.7449 26.4555H67.3705L71.5605 13.091L72.7538 14.8705L69.1082 26.4555H73.7864L75.1457 22.0931H80.1506L78.7914 26.4555H83.4802L87.7475 12.8437H66.9596L65.0314 18.9345L61.8809 12.8437ZM17.6087 16.2389L16.8395 18.7185H11.824L12.6037 16.2389H17.6087ZM82.005 16.2389L81.2359 18.7185H76.2204L77.0001 16.2389H82.005ZM33.6972 16.2389L33.0123 18.3687H28.0074L28.6923 16.2389H33.6972ZM15.4036 5.97693H6.3363L7.22137 7.37497H8.50127L7.18666 11.5818H9.10867L10.432 7.37497H12.3236L12.7309 6.0872L13.217 6.81152L11.7158 11.5818H13.6422L14.3016 9.47203H16.3625L15.703 11.5818H17.6337L19.358 6.07909L19.8504 6.81152L18.3492 11.5818H24.2671L24.6923 10.1922H20.7094L20.935 9.47203H24.9222L25.3691 8.0867H21.3775L21.5988 7.37497H25.5817L26.0242 5.97693H17.4645L16.805 8.0867H14.7442L15.4036 5.97693Z"
        fill="white" />
</svg>