<svg width="17" height="14" viewBox="0 0 17 14" fill="none" xmlns="http://www.w3.org/2000/svg">
    <path
        d="M16.3699 1.76099C15.7842 2.01363 15.1469 2.19545 14.4904 2.26626C15.172 1.86135 15.6824 1.22165 15.9258 0.467195C15.2863 0.847658 14.5856 1.11444 13.855 1.25572C13.2377 0.595801 12.3739 0.222133 11.4703 0.224129C9.66163 0.224129 8.20706 1.69018 8.20706 3.48925C8.20706 3.74188 8.23768 3.99452 8.28745 4.23758C5.57927 4.09595 3.16393 2.80216 1.55817 0.821266C1.26558 1.32102 1.11225 1.89004 1.11414 2.46914C1.11414 3.60217 1.69023 4.60122 2.56871 5.18879C2.051 5.1684 1.54542 5.02611 1.09309 4.77347V4.81367C1.09309 6.40029 2.21463 7.71514 3.70939 8.01754C3.42873 8.09044 3.14002 8.12773 2.85005 8.12854C2.63761 8.12854 2.43665 8.10749 2.23377 8.07878C2.64718 9.37258 3.85102 10.3123 5.28453 10.3429C4.16299 11.2214 2.75818 11.7382 1.2328 11.7382C0.959115 11.7382 0.706479 11.7286 0.444275 11.698C1.89118 12.6262 3.60795 13.1621 5.45678 13.1621C11.4588 13.1621 14.743 8.18979 14.743 3.87394C14.743 3.73231 14.743 3.59068 14.7335 3.44905C15.3689 2.98398 15.9258 2.40789 16.3699 1.76099Z"
        fill="white" />
</svg>