<svg width="100%" height="100%" viewBox="0 0 17 16" fill="none" xmlns="http://www.w3.org/2000/svg">
    <path
        d="M16.2222 7.958C16.2222 10.8013 14.7053 13.4286 12.2429 14.8503C9.78056 16.2719 6.74679 16.2719 4.28443 14.8503C1.82206 13.4286 0.305176 10.8013 0.305176 7.958C0.305176 3.56292 3.86809 0 8.26318 0C12.6583 0 16.2212 3.56292 16.2212 7.958H16.2222Z"
        fill="#3C75C4" />
    <path
        d="M10.1551 9.041C10.1551 8.018 9.54112 7.667 8.31212 7.521C7.43512 7.404 7.25912 7.17 7.25912 6.761C7.25912 6.351 7.55212 6.088 8.13712 6.088C8.66313 6.088 8.95613 6.263 9.10212 6.702C9.13313 6.78881 9.21495 6.84709 9.30712 6.848H9.77412C9.82891 6.84939 9.88186 6.82824 9.92061 6.78949C9.95936 6.75074 9.98051 6.69779 9.97912 6.643V6.614C9.86314 5.96196 9.32307 5.4695 8.66312 5.414V4.713C8.66312 4.596 8.57512 4.508 8.42912 4.479H7.99012C7.87312 4.479 7.78612 4.567 7.75612 4.713V5.386C6.87912 5.503 6.32312 6.088 6.32312 6.819C6.32312 7.784 6.90812 8.164 8.13712 8.31C8.95612 8.457 9.21912 8.632 9.21912 9.1C9.21912 9.568 8.80912 9.89 8.25412 9.89C7.49412 9.89 7.23012 9.568 7.14212 9.13C7.11312 9.012 7.02512 8.954 6.93812 8.954H6.44012C6.38569 8.9529 6.33316 8.97404 6.29466 9.01254C6.25616 9.05104 6.23502 9.10357 6.23612 9.158V9.188C6.35312 9.918 6.82112 10.445 7.78612 10.591V11.293C7.78612 11.41 7.87312 11.498 8.02012 11.527H8.45812C8.57512 11.527 8.66312 11.44 8.69212 11.293V10.591C9.57012 10.445 10.1551 9.831 10.1551 9.041Z"
        fill="white" />
    <path fill-rule="evenodd" clip-rule="evenodd"
        d="M4.13126 6.49701C3.28326 8.74901 4.45226 11.293 6.73426 12.112V12.111C6.82126 12.17 6.91026 12.286 6.91026 12.374V12.784C6.91026 12.842 6.91026 12.871 6.88026 12.901C6.85126 13.018 6.73426 13.076 6.61726 13.018C4.98852 12.5008 3.71246 11.2247 3.19526 9.59601C2.77056 8.26597 2.89273 6.82159 3.53477 5.58177C4.17682 4.34196 5.28594 3.40868 6.61726 2.98801C6.64626 2.95801 6.70426 2.95801 6.73426 2.95801C6.85126 2.98701 6.90926 3.07501 6.90926 3.19201V3.60101C6.90926 3.74801 6.85126 3.83501 6.73426 3.89401C5.52229 4.33081 4.56806 5.28504 4.13126 6.49701ZM9.57126 3.10401C9.60026 2.98701 9.71726 2.92901 9.83426 2.98701V2.98801C11.4656 3.51713 12.7404 4.8024 13.2563 6.43801C13.6816 7.76831 13.5597 9.2132 12.9176 10.4535C12.2755 11.6938 11.166 12.6274 9.83426 13.048C9.80526 13.077 9.74726 13.077 9.71726 13.077C9.60026 13.048 9.54126 12.96 9.54126 12.844V12.434C9.54126 12.287 9.60026 12.2 9.71726 12.141C10.9292 11.7042 11.8835 10.75 12.3203 9.53801C13.1673 7.28601 11.9983 4.74201 9.71726 3.92301C9.62926 3.86501 9.54126 3.74801 9.54126 3.63101V3.22101C9.54126 3.16301 9.54126 3.13401 9.57126 3.10401Z"
        fill="white" />
</svg>