<svg width="20" height="17" viewBox="0 0 20 17" fill="none" xmlns="http://www.w3.org/2000/svg">
    <path
        d="M2.00149 3.47143L5.59259 5.86549L9.17254 0.853539C9.44705 0.469217 9.98119 0.380202 10.3655 0.654712C10.4423 0.709563 10.5094 0.776745 10.5643 0.853539L14.1443 5.86549L17.7354 3.47143C18.1284 3.20945 18.6593 3.31563 18.9213 3.70861C19.0339 3.87761 19.0828 4.08118 19.0591 4.28289L17.6539 16.2274C17.6031 16.6581 17.2382 16.9827 16.8045 16.9827H2.93237C2.49873 16.9827 2.13372 16.6581 2.08306 16.2274L0.677815 4.28289C0.622631 3.81383 0.958148 3.38884 1.42721 3.33366C1.62893 3.30993 1.8325 3.35877 2.00149 3.47143Z"
        fill="#FFC90B" />
</svg>